<?xml version="1.0" encoding="UTF-8"?>
<svg id="Layer_1" data-name="Layer 1" xmlns="http://www.w3.org/2000/svg" viewBox="0 0 256 256">
  <defs>
    <style>
      .cls-1 {
        fill: #fff;
      }

      .cls-2 {
        fill: #4dc6e3;
      }

      .cls-3 {
        fill: none;
        stroke: #fff;
        stroke-miterlimit: 8.07;
        stroke-width: 7.94px;
      }
    </style>
  </defs>
  <path d="M81.38,139.69v-23.37h6.22l7.88,17.33,7.77-17.33h5.96v23.37h-5.13v-13.38l-5.92,13.38h-5.47l-5.99-13.31v13.31h-5.32Zm36.19,0h-6.03l10.37-23.37h7.43l10.44,23.37h-5.96l-2.05-4.67-12.2,.04-1.99,4.64Zm12.27-9.05l-4.24-9.65-4.14,9.65h8.38Zm12.38,9.05v-23.37h22.33v4.67h-16.93v4.68h14.52v4.64h-14.52v4.71h16.93v4.67h-22.33Z"/>
  <path d="M168.88,139.69v-23.37h19.11s1.23-.14,2.53,1.13c1.17,1.13,.97,2.79,.97,2.79v7.85s.23,1.44-1.15,2.68c-1.33,1.19-3.26,.93-3.26,.93l4.45,7.99h-5.84l-4.41-7.99h-6.93v7.99h-5.47Zm5.47-12.66h11.72v-6.03h-11.72v6.03Zm26.98,12.66h-1.85s-1.62-.03-2.55-1c-1.07-1.13-1.03-2.43-1.03-2.43v-3.05h5.43v1.81h11.54v-4.71h-13.24s-1.63,.17-2.64-.87c-1.12-1.14-1-2.52-1-2.52v-7.01s-.02-1.18,.77-2.23c1.14-1.51,2.9-1.36,2.9-1.36h15.12s1.23-.08,2.44,1.09c1.32,1.28,1.02,2.64,1.02,2.64v2.79h-5.39v-1.85h-11.54v4.68h13.19s1.55-.11,2.64,1.13c1.09,1.24,1.09,2.64,1.09,2.64v6.6s.18,1.29-.86,2.47c-1.18,1.34-2.76,1.19-2.76,1.19h-13.31"/>
  <path d="M223.42,139.68v-23.38h5.54v9.35l10.55-9.35h7.51l-12.59,10.86,13.04,12.52h-7.76l-10.75-10.64v10.64h-5.54Z"/>
  <path class="cls-2" d="M53.61,101.02c3.75-.02,6.16,3.03,6.17,6.17v41.62c0,3.37-2.67,6.18-6.2,6.19H14.71c-3.62,0-6.18-2.98-6.18-6.21v-41.6c0-3.47,2.93-6.21,6.19-6.19l38.88,.02"/>
  <path class="cls-3" d="M53.61,101.02c3.75-.02,6.16,3.03,6.17,6.17v41.62c0,3.37-2.67,6.18-6.2,6.19H14.71c-3.62,0-6.17-2.98-6.17-6.21v-41.6c0-3.47,2.93-6.21,6.19-6.19l38.88,.02h0Z"/>
  <path class="cls-1" d="M37.9,120.55l14.4-6.79c.06-.03,.09,.06,.13,.07l-9.96,12.45,14.55,7.03c.07,.04,.15,.1,.05,.17l-15.97,.02,3.65,15.87-.1,.09-10.45-12.77h-.13l-10.34,12.78c-.06,.04-.09,.04-.15,0l3.6-15.93-15.94-.04c-.06-.04-.06-.09-.06-.13l14.49-6.98,.1-.1-9.99-12.43c-.03-.07,.03-.1,.07-.16l14.41,6.79,3.77-15.46h.1l3.75,15.51"/>
</svg>